<svg width="36" height="40" viewBox="0 0 36 40" fill="none" xmlns="http://www.w3.org/2000/svg">
<path d="M15.7827 1.50441C17.1551 0.719883 18.8459 0.719883 20.2183 1.50441L33.0688 8.85047C34.4412 9.635 35.2866 11.0849 35.2866 12.6539V27.346C35.2866 28.9151 34.4412 30.365 33.0688 31.1495L20.2183 38.4956C18.8459 39.2801 17.1551 39.2801 15.7827 38.4956L2.93217 31.1495C1.55978 30.365 0.714355 28.9151 0.714355 27.346V12.6539C0.714355 11.0849 1.55978 9.635 2.93217 8.85047L15.7827 1.50441Z" fill="#141C24"/>
<path d="M15.7827 1.50441C17.1551 0.719883 18.8459 0.719883 20.2183 1.50441L33.0688 8.85047C34.4412 9.635 35.2866 11.0849 35.2866 12.6539V27.346C35.2866 28.9151 34.4412 30.365 33.0688 31.1495L20.2183 38.4956C18.8459 39.2801 17.1551 39.2801 15.7827 38.4956L2.93217 31.1495C1.55978 30.365 0.714355 28.9151 0.714355 27.346V12.6539C0.714355 11.0849 1.55978 9.635 2.93217 8.85047L15.7827 1.50441Z" fill="url(#paint0_angular_2_105312)" fill-opacity="0.4"/>
<path fill-rule="evenodd" clip-rule="evenodd" d="M15.4008 0.697148C17.0092 -0.232383 18.9908 -0.232383 20.5992 0.697148L33.4008 8.09536C35.0092 9.02489 36 10.7427 36 12.6018V27.3982C36 29.2573 35.0092 30.9751 33.4008 31.9046L20.5992 39.3028C18.9908 40.2324 17.0092 40.2324 15.4008 39.3028L2.59924 31.9046C0.990826 30.9751 0 29.2573 0 27.3982V12.6018C0 10.7427 0.990826 9.02489 2.59924 8.09536L15.4008 0.697148ZM19.8195 2.04908C18.6936 1.39841 17.3064 1.39841 16.1805 2.04908L3.37901 9.44729C2.25312 10.098 1.55955 11.3004 1.55955 12.6018V27.3982C1.55955 28.6995 2.25312 29.902 3.37902 30.5527L16.1805 37.9509C17.3064 38.6016 18.6936 38.6016 19.8195 37.9509L32.621 30.5527C33.7469 29.902 34.4405 28.6995 34.4405 27.3982V12.6018C34.4405 11.3004 33.7469 10.098 32.621 9.44729L19.8195 2.04908Z" fill="#97A1AF"/>
<path d="M28.8957 16.6662C29.4497 15.7086 29.1209 14.4841 28.1614 13.9312C27.2019 13.3783 25.9749 13.7064 25.4209 14.664L19.4681 24.9542C18.9141 25.9118 19.2429 27.1364 20.2024 27.6892C21.162 28.2421 22.3889 27.914 22.9429 26.9564L28.8957 16.6662Z" fill="white"/>
<path d="M13.5507 21.9909L16.3053 17.2293C16.8593 16.2716 18.0862 15.9435 19.0458 16.4964C20.0053 17.0493 20.3341 18.2738 19.7801 19.2315L15.3088 26.9606C14.7548 27.9183 13.5278 28.2464 12.5683 27.6935C12.2561 27.5136 12.0106 27.2625 11.8406 26.9727L11.8098 26.9904L5.83997 16.6709C5.28598 15.7132 5.61475 14.4887 6.57429 13.9358C7.53383 13.3829 8.76079 13.711 9.31478 14.6686L13.5507 21.9909Z" fill="white"/>
<defs>
<radialGradient id="paint0_angular_2_105312" cx="0" cy="0" r="1" gradientUnits="userSpaceOnUse" gradientTransform="translate(18.0005 20) rotate(90) scale(19.7634 19.9603)">
<stop offset="0.000421542" stop-color="#122136"/>
<stop offset="0.479167" stop-color="#60B2FD" stop-opacity="0.19"/>
<stop offset="1" stop-color="#2D9DFF" stop-opacity="0.06"/>
</radialGradient>
</defs>
</svg>
