<svg width="32" height="32" viewBox="0 0 32 32" fill="none" xmlns="http://www.w3.org/2000/svg">
<path d="M32 0C32 4.10912 30.3143 8.04994 27.3137 10.9555C24.3131 13.8611 20.2435 15.4934 16 15.4934C11.7566 15.4934 7.68689 13.8611 4.68631 10.9555C1.68573 8.04994 2.35289e-05 4.10912 2.28882e-05 1.68264e-06L32 0Z" fill="url(#paint0_linear_2_106406)"/>
<path d="M32 16.5066C32 20.6157 30.3143 24.5565 27.3137 27.4621C24.3131 30.3677 20.2435 32 16 32C11.7566 32 7.68689 30.3677 4.68631 27.4621C1.68573 24.5565 2.35289e-05 20.6157 2.28882e-05 16.5066L32 16.5066Z" fill="url(#paint1_linear_2_106406)"/>
<defs>
<linearGradient id="paint0_linear_2_106406" x1="2.28882e-05" y1="32" x2="36.5825" y2="25.4001" gradientUnits="userSpaceOnUse">
<stop stop-color="#E31C40"/>
<stop offset="1" stop-color="#F64C4C"/>
</linearGradient>
<linearGradient id="paint1_linear_2_106406" x1="2.28882e-05" y1="32" x2="36.5825" y2="25.4001" gradientUnits="userSpaceOnUse">
<stop stop-color="#E31C40"/>
<stop offset="1" stop-color="#F64C4C"/>
</linearGradient>
</defs>
</svg>
